<svg xmlns="http://www.w3.org/2000/svg" viewBox="0 0 6 6">
    <g transform="translate(-30.13 -107.41)">
        <rect width="6" height="6" x="30.129" y="107.41" class="fill-primary" paint-order="markers fill stroke" rx=".6" ry=".6"></rect>
        <path class="fill-white" d="M31.156 112.952a.533.533 0 0 1-.439-.517c0-.071.528-2.187.564-2.263a.513.513 0 0 1 .202-.205c.107-.056.165-.065.412-.066h.217v-.44l.033-.034.034-.033h.621l.034.033.034.034v.44h.518v-.44l.034-.034.034-.033h.621l.034.033.034.034v.44h.227c.252 0 .3.007.402.062a.574.574 0 0 1 .2.209c.04.08.565 2.192.565 2.267a.531.531 0 0 1-.406.509c-.038.007-.613.008-2.002.008-1.072 0-1.96-.004-1.974-.006zm2.12-.516c.27-.041.5-.179.669-.401a1.2 1.2 0 0 0 .17-.351.801.801 0 0 0 .023-.26c-.001-.208-.01-.274-.098-.442a1.014 1.014 0 0 0-1.83.01c-.077.159-.091.227-.092.433a.84.84 0 0 0 .022.259c.09.328.33.59.645.703.168.06.321.075.492.05zm-.209-.504a.507.507 0 0 1-.04-1 .382.382 0 0 1 .202 0c.096.02.17.059.24.125a.499.499 0 0 1 .017.728.493.493 0 0 1-.419.147zm-2.315-2.303a.257.257 0 0 1-.163-.172 7.308 7.308 0 0 1 0-.645c.084-.416.787-.776 1.764-.902.287-.037.417-.045.774-.045.358 0 .488.007.775.045.879.113 1.54.414 1.72.781.051.107.056.154.054.478-.005.277-.006.29-.026.33a.268.268 0 0 1-.142.128c-.041.01-.105.01-.464.008-.406-.004-.418-.004-.457-.025-.134-.072-.175-.207-.107-.358.05-.113.041-.206-.03-.287a.32.32 0 0 0-.086-.067l-.046-.023h-2.351l-.056.029a.266.266 0 0 0-.13.13.3.3 0 0 0 .002.235.26.26 0 0 1-.12.345c-.031.017-.066.019-.457.02-.309.001-.432 0-.454-.008z"></path>
    </g>
</svg>
