<svg xmlns="http://www.w3.org/2000/svg" viewBox="0 0 157.5 52.9"><path d="M121.4 34.6a9.2 9.2 0 1 0 9.1 9.2 9.2 9.2 0 0 0-9.1-9.2m0 14.1a5 5 0 1 1 5-5 5 5 0 0 1-5 5"/><path d="M121.4 41.6a2.1 2.1 0 1 0 2.1 2.2 2.1 2.1 0 0 0-2.1-2.2"/><path d="M31.9 41.6a2.1 2.1 0 1 0 2 2.2 2.1 2.1 0 0 0-2-2.2"/><path d="M31.9 34.6a9.2 9.2 0 1 0 9.1 9.2 9.2 9.2 0 0 0-9.1-9.2m0 14.1a5 5 0 1 1 5-5 5 5 0 0 1-5 5"/><path d="M156.4 4.5c0-2-2.8-2.1-2.8-2.1l-6.3-.6a7.1 7.1 0 0 0-4.8-1.8H7.7C3.7 0 1 3.2 1 7.2L0 17.3v19.1a7.5 7.5 0 0 0 2.1 5.4 5.7 5.7 0 0 0 2.4 1.5l14.8 4.1h2a11.3 11.3 0 1 1 21.2 0h68.2a11.3 11.3 0 1 1 21.3 0h15.3a7.2 7.2 0 0 0 7.2-7.2c0-12-4.1-30.6-5.9-36.1h5.3l2.2 11.6a1.4 1.4 0 0 0 1.4-1.4ZM31.8 19.7a1.4 1.4 0 0 1-1.4 1.4h-21a1.4 1.4 0 0 1-1.5-1.4V5.5a1.4 1.4 0 0 1 1.4-1.4h21.1a1.4 1.4 0 0 1 1.4 1.4Zm25.5 0a1.4 1.4 0 0 1-1.4 1.4H34.8a1.4 1.4 0 0 1-1.4-1.4V5.5a1.4 1.4 0 0 1 1.4-1.4h21a1.4 1.4 0 0 1 1.5 1.4Zm25.4 0a1.4 1.4 0 0 1-1.4 1.4h-21a1.4 1.4 0 0 1-1.5-1.4V5.5a1.4 1.4 0 0 1 1.4-1.4h21.1a1.4 1.4 0 0 1 1.4 1.4Zm25.5 0a1.4 1.4 0 0 1-1.4 1.4H85.7a1.4 1.4 0 0 1-1.4-1.4V5.5a1.4 1.4 0 0 1 1.4-1.4h21a1.4 1.4 0 0 1 1.5 1.4Zm25.4 0a1.4 1.4 0 0 1-1.4 1.4h-21a1.4 1.4 0 0 1-1.5-1.4V5.5a1.4 1.4 0 0 1 1.5-1.4h21a1.4 1.4 0 0 1 1.4 1.4Zm11.8-12.3v19H135V5.4a1.5 1.5 0 0 1 1.5-1.4h9ZM154 40a5.3 5.3 0 0 1-.1 1v.2-.2l-5.3-2v-2l5.3.3v2.7m-1.7-12.8h-2.6a3 3 0 0 1-2.8-2V5.6h1.3c1 3 3.2 13.5 4.1 21.4"/></svg>