<svg xmlns="http://www.w3.org/2000/svg" viewBox="0 0 123 37.5"><path d="m122.4 22.6-1.6-2.2-1.7-2.6a7.7 7.7 0 0 0-5.3-3.5l-22.4-3.4L68.9.7a7.7 7.7 0 0 0-3.2-.7h-33a7.7 7.7 0 0 0-4.5 1.4L13.7 11.7H5.4a3.7 3.7 0 0 0-3.7 3.7v4L0 22.2V26l1.5 5.3L15 32.6c0-1-.6-2.5-.6-3.2a9.9 9.9 0 0 1 5.1-8.5 9.4 9.4 0 0 1 4.6-1.2 9.6 9.6 0 0 1 6.5 2.6 10 10 0 0 1 1.8 2 9.7 9.7 0 0 1 1.4 5.1l-.1 4.2h60l-.1-2.5a4.5 4.5 0 0 1-.2-1s0-1.7.2-2.3a9.8 9.8 0 0 1 9.5-8 9.5 9.5 0 0 1 6 2 9.9 9.9 0 0 1 3.7 7.7 25.6 25.6 0 0 1-.7 3.6l3.2-.3a8.5 8.5 0 0 0 7.7-8.5 3 3 0 0 0-.6-1.7M8.3 18.3H3.5l-.5-.5v-3h5.4l1.2 2.5Zm19.4-6.6V8.6l5.6-4.7a7.7 7.7 0 0 1 5-1.8H52l1.3 9.6Zm54.4-2.4-2-.2.3 2.6H56.9L54.2 2l11.2-.3a7.7 7.7 0 0 1 3.4.7l15.5 7a2.1 2.1 0 0 1 .3 1.1 21.2 21.2 0 0 0-2.5-1.3m36.7 11.1-3.6.1a3.4 3.4 0 0 1-3.5-3.2v-1l5 .5 2.2 3.6Z"/><path d="M24.1 21.1a8.2 8.2 0 1 0 8.2 8.2 8.2 8.2 0 0 0-8.2-8.2m0 13.2a5 5 0 1 1 5-5 5 5 0 0 1-5 5"/><path d="M24.1 27.2a2.1 2.1 0 1 0 2.1 2.1 2.1 2.1 0 0 0-2-2"/><path d="M103 21.1a8.2 8.2 0 1 0 8.2 8.2 8.2 8.2 0 0 0-8.2-8.2m0 13.2a5 5 0 1 1 5-5 5 5 0 0 1-5 5"/><path d="M103 27.2a2.1 2.1 0 1 0 2.1 2.1 2.1 2.1 0 0 0-2-2"/></svg>