<svg xmlns="http://www.w3.org/2000/svg" aria-hidden="true" viewBox="0 0 512 512"><path d="M0 405v43c0 35 86 64 192 64s192-29 192-64v-43c-41 29-117 43-192 43S41 434 0 405zm320-277c106 0 192-29 192-64S426 0 320 0 128 29 128 64s86 64 192 64zM0 300v52c0 35 86 64 192 64s192-29 192-64v-52c-41 34-117 52-192 52S41 334 0 300zm416 11c57-11 96-31 96-55v-43c-23 17-57 28-96 35v63zM192 160C86 160 0 196 0 240s86 80 192 80 192-36 192-80-86-80-192-80zm219 56c60-10 101-32 101-56v-43c-35 25-96 39-161 42 30 14 52 34 60 57z"></path></svg>
