<svg xmlns="http://www.w3.org/2000/svg" aria-hidden="true" viewBox="0 0 28.1 30"><path d="M19.7 0a8.4 8.4 0 1 0 0 16.9c4.7 0 8.4-3.8 8.4-8.5C28 3.8 24.4 0 19.7 0zm2 7c.4 0 .7.4.7.8 0 .5-.3.8-.7.8h-4.4c0 .3 0 .6.2.8h4.2a.8.8 0 0 1 0 1.6h-3.2c1 1 2.5 1.3 3.9.8.4-.1.8 0 1 .5.1.4 0 .8-.5 1a5.1 5.1 0 0 1-6.3-2.3h-1.3a.8.8 0 0 1-.8-.8c0-.4.4-.8.8-.8h.7v-.8h-.7a.8.8 0 0 1-.7-.8c0-.4.3-.7.7-.7h.8A5.1 5.1 0 0 1 23 3.6c.4.2.6.6.5 1-.2.4-.6.6-1 .5a3.6 3.6 0 0 0-3.9.8c-.3.3-.7.7-.9 1.2zM27 21l-.1-.2c-.5-.5-1.6-.7-2.1-.3-1.5 1.3-2.5 1.8-4 3a7.3 7.3 0 0 1-4.5 1.4l-3.9.2c-.7 0-1.5 0-1.9-.6l-.3-.5-.2-1c-.2-1 .5-1.8 1.6-2l4-.8c.7-.1 1.1-.8 1-1.4 0-.6-.6-1-1.2-1.2H15.1l-5.3-.3c-1.9 0-5 .9-6.4 2.1l-1 1V29l1.5-.5c1-.2 1.7-.2 2.9-.2l8.2.4c2.5.1 5-.7 7-2.4l4.8-3.6c.5-.5.6-1.3.2-1.8z"></path><path d="M1.5 19.1H1c-.5 0-.9.3-.9.7v9.5c0 .4.4.7 1 .7h.5c.6 0 1-.3 1-.7v-9.5c0-.4-.4-.7-1-.7z"></path></svg>
