<svg xmlns="http://www.w3.org/2000/svg" viewBox="0 0 76.6 42"><path d="m70.3 21.2-1 .2-1.8 1.8.1 1a6.8 6.8 0 1 1-7.2 3L59 25.6l-1.6-.1a10.4 10.4 0 1 0 13-4.2"/><path d="M20.5 31.2a6.7 6.7 0 1 1-10.8-5.8l-3.3-2.3-.1-.7a11.2 11.2 0 1 0 18.6 9.9l-1.4-1Z"/><path d="M10.3 30.7a3.6 3.6 0 0 0 7 .2l-4.8-3.5a3.6 3.6 0 0 0-2.2 3.3"/><path d="m1.6 16 5.8-4.8 9.3 1.8-.8-.5-4-2.8L0 10A18.4 18.4 0 0 1 3 11a.9.9 0 0 1 .3 1Z"/><path d="m53.7 8.4.5.2a.7.7 0 0 0 .2 0H56l.4.8a19.1 19.1 0 0 0 3.5.3l-2.4-3h-1.7l-1.9.4a.7.7 0 0 0-.1 1.3"/><path d="m69 20.5 2.3-.3a11.6 11.6 0 0 0-5-1 11 11 0 0 0-4.2.8 1 1 0 0 1 .1.3l3.1 6.6 1.5 3.3a.9.9 0 1 1-1.6.8l-1.5-3.2-3.1-6.7a16.8 16.8 0 0 0-3.5 3.4l2.4.2 3.3 4.1a4 4 0 1 0 4.2-1.9l-.4-4 2.2-2.4Z"/><path d="M38.2 23.9a1.1 1.1 0 1 0 1 1.1 1.1 1.1 0 0 0-1-1.1"/><path d="M42.9 25.5a28.5 28.5 0 0 0-3-4.6l-.3-.3 1.8-3.3 5.6-2 .2-1c-.7-.5-2.2-1.4-3.2-1.2l-14.5 3.3-7.3-.5 6.4 4.6a1.3 1.3 0 0 1-.4 2.2l-5.1 1.7a11.2 11.2 0 0 0-8-4.8l6.8 5.2 2.9 2 .3 1.8 7.3 5v.1a2.8 2.8 0 0 1 .1.8 21.6 21.6 0 0 0 10.4-9M30.7 28a1.3 1.3 0 1 1 1.4-1.3 1.3 1.3 0 0 1-1.4 1.3m3.6-2a.4.4 0 0 1-.6 0l-1-.9a3.5 3.5 0 0 1-.9-1 .4.4 0 0 1-.2.1l-2.4.5a1.5 1.5 0 0 0-1.1 1.4v.8a2 2 0 0 0 .7 1.5l.8.7a.5.5 0 0 1-.6.7l-.8-.7a3 3 0 0 1-1-2.2v-.8A2.4 2.4 0 0 1 29 24l2.4-.5a.4.4 0 0 1 .1 0 3.5 3.5 0 0 1 0-.8v-1a2.8 2.8 0 0 1 2.1-2.7l1.8-.4a1.3 1.3 0 1 1 .1.9l-1.7.4a1.9 1.9 0 0 0-1.5 1.8v1a2.6 2.6 0 0 0 1 2l1 .8a.4.4 0 0 1 0 .7m1.2.3v-2.8a3.3 3.3 0 0 1 5.3 0v2.8a3.3 3.3 0 0 1-5.3 0"/><path d="m24.8 29.6-.6 1.2 6.7 4.1H31.5a1 1 0 0 0 0-.8Z"/><path d="m23.3 30.5.9-1.7-.3-1.4-13.4-10-3.1-1-1 2.1.8 4L18 30.3Z"/><path d="M53.1 30c.1-.2 2.1-6.2 7-9.8a21.4 21.4 0 0 1 7-3.1c1.6-.5 2.7-.8 3-1.5.3-.9.5-4.5-12-15.6a20 20 0 0 0-1.6 5c1.8.5 7 1.7 7.3 3.6a1.3 1.3 0 0 1-.6 1.2c-1.6 1.3-6.9.9-10.4-.3l-.6-.3c-4.2-1.5-11.3-4-15.3-1.8-3.6 2-3.4 3.9-3.4 4.2l1 1.5-9 1.2-4.8-2.2-1.5-2.4L17 6.1 6.6 5l9.8 6.6 5.3 3.3 7.7.5 14.4-3.3c1.9-.4 4.1 1.6 4.2 1.7l.2.2-.5 1.8-5.6 2.1-1.4 2.6c.8 1 2.8 3.8 3 4.7.3 1.3-4.1 6.8-10.4 9.8l4.1.9a40.7 40.7 0 0 0 9.1 1h7.2l-.6-6.9Zm-4 3a1.1 1.1 0 0 1-.6.3 9.7 9.7 0 0 1-1.9.4 32.4 32.4 0 0 1-5.7 0v-.1a27.8 27.8 0 0 1 3.8-.9l.9-.1 1-.2.8-.1.2-.1-.8-1.6a25.9 25.9 0 0 1-1.6-3.5 32 32 0 0 1 2.5 2.9 13 13 0 0 1 1 1.6 3.1 3.1 0 0 1 .4 1 .7.7 0 0 1 0 .5M51.7 20c.3-.6 5.6-1 5.6-1l-8 6 2.4-5"/><path d="m25.6 13.4 7.4-1-.2-.2-1-.1h-.2l-.3-.1H31l-.5-.1H30l-.3-.1h-.4l-.2-.1h-.5l-.2-.1h-.7l-.2-.1H27l-.2-.1h-.5l-.3-.1h-.3l-.2-.1h-.5l-.5-.2h-.5l-.2-.1h-.6l-.2-.1h-.3l-.3-.1h-.1l-.5-.2h-.5l-.2-.1-.2-.1h-.4l.8 1Z"/></svg>