<svg xmlns="http://www.w3.org/2000/svg" viewBox="0 30 90 40"><path d="M87.1 52.3a14.8 14.8 0 0 0-6.1-4.2 17.6 17.6 0 0 0-6.4.3c-3 .7-7.1 3.5-10.8 7.1l-.9 1a41.5 41.5 0 0 1-7.2 6h8.2a5 5 0 0 0 1.6-.3l2.3-.8a8.7 8.7 0 0 1-.1-1.4 9.4 9.4 0 0 1 9.3-9.4 9.8 9.8 0 0 1 7.7 4 .8.8 0 0 0 1.2 0l1.2-1.5a.6.6 0 0 0 0-.8Z"/><path d="M80.5 44.9a3.5 3.5 0 0 0-3.4-2.4h-18a2.8 2.8 0 0 1-2.5-1.6l-3-6.2a4.8 4.8 0 0 0-4.4-2.7H25.9a16.8 16.8 0 0 0-5.6 1.1 11.6 11.6 0 0 0-6 5.7L5 57c-.6.1-1.6.4-1.9 1.1a2 2 0 0 0 .3 1.9A2 2 0 0 0 5 61h4.1v-1A9.4 9.4 0 1 1 28 60a7.9 7.9 0 0 1 0 .8h.8a.2.2 0 0 1 .2.1.3.3 0 0 1 0 .2 1.5 1.5 0 0 0 1.5 1.5h22c2.8-.5 6.7-4.1 9.6-7l.9-1c3-2.9 7.5-6.4 11.3-7.4a17.7 17.7 0 0 1 6.6-.2 8.4 8.4 0 0 0-.4-2.1Zm-44.7-1.3h-16a.6.6 0 0 1-.5-1l1.7-3.2a8.8 8.8 0 0 1 3.8-4 14.5 14.5 0 0 1 5.8-1.4h5.5Zm15.5 3.6H48a.6.6 0 1 1 0-1.2h3.2a.6.6 0 1 1 0 1.2Zm2.5-4.3a1.3 1.3 0 0 1-1.1.7H39.2V34h9a2.8 2.8 0 0 1 2.5 1.6l3 6a1.3 1.3 0 0 1 0 1.3ZM77 51.8a8.2 8.2 0 1 0 8.2 8.2 8.2 8.2 0 0 0-8.2-8.2ZM77 64a4 4 0 1 1 4.1-4.1 4 4 0 0 1-4.1 4ZM12.4 39.8 7 50.3l-2-1a.6.6 0 0 1-.3-.3.6.6 0 0 1 0-.5L9.6 39a.6.6 0 0 1 .8-.3ZM84.7 43.6v3.6a.6.6 0 0 1-.6.5h-.5a2.3 2.3 0 0 1 0-4.6h.5a.6.6 0 0 1 .6.5Z"/><path d="M18.5 51.8a8.2 8.2 0 1 0 8.2 8.2 8.2 8.2 0 0 0-8.2-8.2Zm0 12.3a4 4 0 1 1 4-4.1 4 4 0 0 1-4 4Z"/></svg>