<svg xmlns="http://www.w3.org/2000/svg" viewBox="0 20 90 50"><path d="M19.11 54.79a7.06 7.06 0 1 0 7.05 7.06 7.06 7.06 0 0 0-7.05-7.06Zm0 10.56a3.51 3.51 0 1 1 3.52-3.5 3.51 3.51 0 0 1-3.52 3.5Zm29.83-22.73a.5.5 0 0 0-.5.5v2.57a.5.5 0 0 0 1 0v-2.57a.5.5 0 0 0-.5-.5Z"/><path d="M87.54 58.2h-.68l-.09-7.91A2.21 2.21 0 0 0 85 48.63l-9-1.77-6.31-10.39a2.7 2.7 0 0 0-2.28-1.28H56.92a1.36 1.36 0 0 1 1.33-1h13a1.6 1.6 0 0 0 1.26-.61 1.62 1.62 0 0 0 .32-1.36l-2.35-8.72a2 2 0 0 0-2-1.58H5.82a2.07 2.07 0 0 0-2.06 2.06v33.5H2.49a.5.5 0 0 0-.5.5v3.48a.5.5 0 0 0 .47.5l1.69.04h.09l3.43.18h.09l1.13.06h2v-.44a8.25 8.25 0 1 1 16.5 0v.44H62v-.44a8.25 8.25 0 1 1 16.5 0v.44h9a.5.5 0 0 0 .5-.5V58.7a.5.5 0 0 0-.46-.5ZM57.2 25.35a.5.5 0 0 1 .5-.5h8.92a.5.5 0 0 1 .5.5v4.24a.5.5 0 0 1-.5.5H57.7a.5.5 0 0 1-.5-.5ZM32.62 43.8a1.17 1.17 0 0 1-1.17 1.2h-21a1.17 1.17 0 0 1-1.21-1.2V32.66a1.17 1.17 0 0 1 1.17-1.17h21a1.17 1.17 0 0 1 1.17 1.17Zm18.45 15.7a1.25 1.25 0 0 1-1.25 1.25H37.49a1.25 1.25 0 0 1-1.25-1.25v-27a1 1 0 0 1 1-1h12.84a1 1 0 0 1 1 1Zm13.25-9.16h-2.57a.5.5 0 0 1-.5-.5.5.5 0 0 1 .5-.5h2.57a.5.5 0 0 1 .5.5.5.5 0 0 1-.5.5Zm7.9-3.34a1 1 0 0 1-.84.48H60.46a1.12 1.12 0 0 1-1.12-1.12v-7.5a1.12 1.12 0 0 1 1.12-1.12h6a1.66 1.66 0 0 1 1.44.83L72.22 46a1 1 0 0 1 0 1Z"/><path d="M70.09 54.79a7.06 7.06 0 1 0 7 7.06 7.06 7.06 0 0 0-7-7.06Zm0 10.56a3.51 3.51 0 1 1 3.51-3.5 3.51 3.51 0 0 1-3.51 3.5Z"/></svg>