<svg xmlns="http://www.w3.org/2000/svg" viewBox="0 10 90 60"><path d="M14.5 49.5h-5A5.5 5.5 0 0 1 4 44V27a5.5 5.5 0 0 1 5.5-5.5h22.1v-1.8h-22a7.3 7.3 0 0 0-7.3 7.2V44a7.3 7.3 0 0 0 7.2 7.2h5Zm23.2-33.8a4.9 4.9 0 0 0 0 9.8h2.2v-9.8Zm-2.1 7.8.7-2.8h-1l3.2-3-1 2.6h1.2Z"/><path d="M31.3 22.3h3.4V19h-3.4a.9.9 0 0 0-.9.9v1.6a.9.9 0 0 0 1 1Z"/><rect width="1.8" height="10.6" x="39.7" y="15.3" rx=".5"/><path d="M40.4 24.4h3.8a.5.5 0 0 0 .5-.5V23a.5.5 0 0 0-.5-.5h-3.8Zm0-5.8h3.8a.5.5 0 0 0 .5-.5v-.8a.5.5 0 0 0-.5-.4h-3.8Zm-22.5 42a7.2 7.2 0 1 0 7.2-7.2 7.2 7.2 0 0 0-7.2 7.2Zm3.6 0a3.6 3.6 0 1 1 3.6 3.6 3.6 3.6 0 0 1-3.6-3.6Zm44.7 0a7.2 7.2 0 1 0 7.2-7.2 7.2 7.2 0 0 0-7.2 7.2Zm3.6 0a3.6 3.6 0 1 1 3.6 3.6 3.6 3.6 0 0 1-3.6-3.6Z"/><path d="m83.9 45.3-15.6-3.1-13.2-11.3a3.6 3.6 0 0 0-2.4-.9h-22a3.7 3.7 0 0 0-2.7 1.2l-9.6 11H12a2.6 2.6 0 0 0-2.6 2.6v13.4a2.6 2.6 0 0 0 2.6 2.6h4.3v-.1a8.8 8.8 0 1 1 17.6 0v.1h30.7v-.1a8.8 8.8 0 1 1 17.6 0v.1h3a2.5 2.5 0 0 0 2.5-2.5V50a4.8 4.8 0 0 0-3.8-4.7Zm-46.4-3.5a.7.7 0 0 1-.6.7H24.3a.7.7 0 0 1-.5-1.1l7-7.7a2.5 2.5 0 0 1 1.8-.9h4.3a.7.7 0 0 1 .7.7Zm11.1 5h-3.3a.6.6 0 1 1 0-1.2h3.3a.6.6 0 0 1 0 1.3ZM61 42.6H42.3a.7.7 0 0 1-.6-.6l-.9-8.3a.7.7 0 0 1 .7-.8h9a4 4 0 0 1 2.6 1l8.3 7.5a.7.7 0 0 1-.4 1.2Z"/></svg>