<svg xmlns="http://www.w3.org/2000/svg" viewBox="0 0 6 6"><g transform="translate(-30.1 -107.4)"><rect class="fill-primary" width="6" height="6" x="30.1" y="107.4" rx=".6" ry=".6"></rect><g fill="white"><path d="m7977.1 6723.9-17.1-13.4a1038.5 1038.5 0 0 0-625-210.7 1037.4 1037.4 0 0 0-642.1 224.2L6211 7107 3410.8 4881h7848.5L8459 7107 7977 6723.8M3077.4 9597.7V5072.8l2846.3 2262.5-2846.3 2262.4M11592.6 5072.8v4525L8746.4 7335.2l2846.2-2262.5" transform="matrix(.00056 0 0 -.00056 29 114.6)"></path><path d="M6915.4 7003.9a670 670 0 0 1 691.3-89.7 683.4 683.4 0 0 1 147.9 89.7L11258.5 9789h-7847l3503.9-2785.1" transform="matrix(.00056 0 0 -.00056 29 114.6)"></path></g></g></svg>
