<svg xmlns="http://www.w3.org/2000/svg" xml:space="preserve" viewBox="0 0 281.7 264.8"><g fill="none" stroke="#ff6e07" stroke-width="7.5"><path d="M244.5 3.8H92S60 .2 60 40.2v176"/><path d="M178 260.4 34 261c-42-6.9-28-44.9-28-44.9l128 1c6.6 48.9 75.8 66 80.8-1 .2-2 1.2-176 1.2-176 0-50 62-47 62 0h-62"/></g><path fill="#ff6e07" d="M102.8 54.8a30.1 30.1 0 1 1 60.2 0 30.1 30.1 0 0 1-60.2 0zm30-22.7a22.7 22.7 0 1 0 0 45.4 22.7 22.7 0 0 0 0-45.4z"/><path fill="none" stroke="#ff6e07" stroke-linecap="round" stroke-width="5" d="M145.5 54.3c.7-8-5.9-13.6-12.9-12.8"/><path fill="#ff6e07" d="M119.4 89.2v112h27v-112a30 30 0 0 1-27 0z"/></svg>