<svg xmlns="http://www.w3.org/2000/svg" viewBox="0 0 2674 2984"><g fill="#231f20"><path d="M1337 629a708 708 0 0 1 562 1138c-64 84-113 169-148 259s-56 186-65 291l-4 47c-3 29-27 51-56 51h-578c-30 0-54-23-56-52l-4-46c-9-105-30-201-65-291s-84-175-148-259a708 708 0 0 1 562-1138zm0 112a596 596 0 0 0-473 958 1153 1153 0 0 1 236 604h475a1135 1135 0 0 1 236-604 596 596 0 0 0-474-958"/><path d="M1853 1337a56 56 0 1 1-112 0c0-168-103-318-260-378a56 56 0 1 1 39-104 517 517 0 0 1 333 482M1281 56a56 56 0 0 1 112 0v412a56 56 0 0 1-112 0V56m922 336a56 56 0 1 1 80 79l-292 291a56 56 0 1 1-79-79l291-291m415 889a56 56 0 0 1 0 112h-411a56 56 0 0 1 0-112h411m-335 922a56 56 0 1 1-80 80l-291-292a56 56 0 1 1 79-79l292 291M392 471a56 56 0 1 1 79-79l291 291a56 56 0 1 1-79 79L392 471M56 1393a56 56 0 0 1 0-112h412a56 56 0 0 1 0 112H56m415 890a56 56 0 1 1-79-80l291-291a56 56 0 1 1 79 79l-291 292m577 322a56 56 0 1 1 0-112h578a56 56 0 1 1 0 112h-578m0 189a56 56 0 0 1 0-112h578a56 56 0 0 1 0 112h-578m133 190a56 56 0 0 1 0-112h312a56 56 0 0 1 0 112h-312"/></g></svg>