<svg xmlns="http://www.w3.org/2000/svg" viewBox="0 0 120.5 50.6"><path d="M101.6 41.6a1.7 1.7 0 1 0 1.6 1.7 1.7 1.7 0 0 0-1.6-1.7"></path><path d="M101.6 36.1a7.2 7.2 0 1 0 7.2 7.2 7.2 7.2 0 0 0-7.2-7.2m0 11.1a4 4 0 1 1 3.9-3.9 4 4 0 0 1-4 4"></path><path d="M27.5 41.6a1.7 1.7 0 1 0 1.7 1.7 1.7 1.7 0 0 0-1.7-1.7"></path><path d="M27.5 36.1a7.2 7.2 0 1 0 7.3 7.2 7.2 7.2 0 0 0-7.3-7.2m0 11.1a4 4 0 1 1 4-3.9 4 4 0 0 1-4 4"></path><path d="M110.9 6H91.6v32H39.4a13 13 0 0 0-1.2-2.2h50V0H0v35.8h17a13 13 0 0 0-1.3 2.2h-6v7.5h9l-.3-1.1a9.2 9.2 0 1 1 18.3-1 9.2 9.2 0 0 1-.2 2h56.2a9.2 9.2 0 1 1 17.8 0h2.7l7.3-7.4V25.2ZM94.3 22.7v-14h15l7 14Z"></path></svg>
