<svg xmlns="http://www.w3.org/2000/svg" viewBox="0 0 10537 2351"><path class="fill-primary" d="M8565 224a224 224 0 1 1 448 0 224 224 0 0 1-448 0zm224-169a169 169 0 1 0 0 338 169 169 0 0 0 0-338z" transform="scale(1.05373)"/><path class="fill-none stroke-primary stroke-[41.66999817px]" d="M8882 220c6-59-43-101-95-95" transform="scale(1.05373)"/><path d="M1911 913c0 76-19 133-56 171-38 37-90 56-156 56s-118-18-156-56-56-95-56-171V479h-201v434c-1 61 9 121 29 179a351 351 0 0 0 218 214c108 36 224 36 331 0a351 351 0 0 0 218-215c21-57 31-118 29-179V479h-200v434zm1831-16-1 26a253 253 0 0 1-34 106 225 225 0 0 1-109 93c-65 24-136 24-201 0a224 224 0 0 1-125-127c-24-63-24-133 0-197a226 226 0 0 1 125-127 280 280 0 0 1 222 10c14 8 27 16 39 26l1 1 2 2 12 12 3 3 3 3c19 20 34 44 44 70 12 31 19 65 18 99h1zm75-314c-40-40-89-71-142-91-56-22-117-32-177-32-61-1-122 10-179 32a407 407 0 0 0-234 230 484 484 0 0 0 2 355 404 404 0 0 0 231 226 453 453 0 0 0 386-30c15-10 31-21 45-33v74h193V901a435 435 0 0 0-125-318zm1976-17c-37-36-81-64-129-80-50-17-102-25-154-25a379 379 0 0 0-227 71V159h-200v1155h200V880c0-75 20-133 57-170 38-38 90-57 156-57s118 19 156 56c37 37 56 94 56 171v434h200V880c2-62-9-123-30-181-18-50-47-96-85-133zm2678-14c-33-31-72-55-116-70a447 447 0 0 0-282 0 309 309 0 0 0-192 187c-18 50-27 102-26 155v490h200V824c0-62 14-106 41-132 28-25 68-39 118-39s89 13 118 40c29 26 41 69 41 131v61h199v-60c1-53-8-106-25-156-17-44-42-84-76-117zm217-72v834h201V480a224 224 0 0 1-201 0zm1057 834h255l-356-423 344-412h-252l-226 279-225-279h-255l342 412-355 423h253l236-291zm-7018-313c-2 49-13 85-36 105-25 23-59 34-102 34-44 0-79-11-103-34-25-23-36-60-36-113V671h359V479h-359V221h-200v772c-1 50 8 99 25 145 15 41 39 78 70 109 32 30 69 52 111 66a421 421 0 0 0 265 0 291 291 0 0 0 179-175c16-44 25-90 25-137v-11h-198v11zm3795 0c-1 49-13 85-35 105-26 23-59 34-103 34s-78-11-103-34c-24-23-35-60-35-113V671h358V479h-358V221h-200v772c-1 50 7 99 24 145a290 290 0 0 0 180 175 421 421 0 0 0 266 0 291 291 0 0 0 179-174c16-44 25-91 25-137v-12h-198v11zm532-211c14-33 35-62 62-84 42-35 97-53 162-53 31 0 62 5 91 14a223 223 0 0 1 120 101l12 22h-447zm543-206c-40-40-88-71-141-91a504 504 0 0 0-356 0 407 407 0 0 0-234 231 477 477 0 0 0 0 346 406 406 0 0 0 234 231c57 22 118 33 179 32 88 2 176-22 251-69 68-43 121-106 153-180l10-23h-224l-4 3c-16 20-36 36-58 48-40 20-84 30-129 28-32 1-64-5-95-16a221 221 0 0 1-140-158l-3-10-1-4h682v-55a429 429 0 0 0-124-313zM4332 722c21-22 47-39 76-50 32-13 66-19 100-19 51-1 102 13 146 41 25 17 47 40 63 66l3 6h212l-4-15a414 414 0 0 0-147-205 447 447 0 0 0-273-86c-61-1-122 10-178 33a405 405 0 0 0-234 230 476 476 0 0 0-1 347 406 406 0 0 0 235 231c104 39 219 43 327 10 44-15 86-36 124-63a396 396 0 0 0 145-202l5-14h-213l-3 5c-16 25-37 46-61 63-44 28-94 42-146 40-34 1-68-6-100-18a225 225 0 0 1-125-127c-24-63-24-133 0-197 11-28 27-54 48-76zM458 929h448a304 304 0 0 1-204 189 431 431 0 0 1-278-7 327 327 0 0 1-185-185c-35-93-35-195 0-288a329 329 0 0 1 185-185c47-19 97-28 147-27a336 336 0 0 1 310 170l4 6h231l-6-19a517 517 0 0 0-203-262c-47-32-100-57-155-73a640 640 0 0 0-410 17A524 524 0 0 0 42 560a610 610 0 0 0 0 445 528 528 0 0 0 300 294c73 29 151 43 229 42 74 1 148-12 217-38a526 526 0 0 0 297-267c31-64 50-133 55-205v-54H457l1 152z" class="fill-primary" transform="scale(1.05373)"/><path d="M1254 2157c-2 4-7 8-15 12-7 3-13 5-18 5-13 0-25-7-35-20a1284 1284 0 0 1-81-195l-71 129c-40 71-66 107-80 107-9 0-17-2-24-7-7-4-13-13-19-26-7-14-15-44-25-90a3053 3053 0 0 1-45-227l-5-18c-5-15-8-26-8-33 0-9 4-17 12-25 7-8 16-12 26-12 18 0 31 15 39 44 7 29 11 50 12 62l8 49a897 897 0 0 0 18 104c8 46 13 72 15 77l72-118c11-21 29-56 51-105 3-5 7-9 14-13 6-4 12-6 18-6 9 0 16 5 21 13a487 487 0 0 1 32 73l23 63c21 55 33 84 35 85 55-105 88-212 100-322 0-7 3-13 10-18 6-4 14-6 23-6 12 0 20 4 25 11 5 8 8 16 8 25 0 19-6 50-16 91s-26 86-46 134l-9 20a3448 3448 0 0 1-65 137zm330-420c0 13-6 26-19 36-12 10-23 15-32 15-12 0-22-5-31-14-9-10-13-20-13-29 0-14 4-25 13-34s22-13 38-13c13 0 24 4 32 11 8 8 12 17 12 28zm-140 238 9-60c0-14 3-26 9-36 7-10 15-14 27-14 13 0 23 3 31 9 7 6 10 13 10 21 1 8-3 24-10 48l-2 6a532 532 0 0 0-22 149 249 249 0 0 0 7 56c0 4-5 10-13 18-8 7-17 11-27 11-26 0-39-19-39-58 0-33 5-73 14-120l6-30zm227 49 5-9c24-47 49-86 76-115s53-44 79-44c20 0 36 6 48 16 13 11 19 24 19 39 0 9-2 17-7 24-4 7-10 10-17 10-12 0-23-5-33-15-7-6-13-9-17-9-14 0-38 22-72 67-35 45-55 96-62 152-2 17-7 28-14 35-8 6-18 9-30 9-14 0-23-7-29-23-5-15-8-40-8-74a1668 1668 0 0 1 10-160l6-39c2-7 7-14 15-20s17-9 27-9c11 0 19 3 24 8 6 7 8 13 8 20 0 9-4 28-13 57l-8 35-7 45zm553 127c-2 20-13 30-33 30-26 0-38-19-38-55 0-59 3-110 9-152 5-33 8-65 8-96 0-8 2-14 7-19 5-6 12-8 20-8 29 0 44 17 44 53 0 11-5 40-15 87-7 28-10 48-10 61 56-122 106-182 150-182 18 0 33 7 44 21 10 14 16 46 16 95 1 45 3 68 7 68s16-22 37-66c23-48 43-80 59-95 16-16 33-23 51-23 22 0 37 9 47 27 10 19 16 50 20 94 3 35 7 61 12 79s13 29 25 35c10 5 15 12 15 21 0 8-6 17-17 25-11 9-22 13-33 13-20 0-35-10-47-29-11-20-18-59-22-117-2-29-4-47-7-57-2-9-6-13-11-13-4 0-10 7-18 20l-42 83c-18 37-33 63-46 78-12 14-26 22-41 22-11 0-22-5-33-15-12-9-18-45-19-105-1-54-4-81-10-81-9 0-28 24-59 72s-54 91-70 129zm722-80c-51 67-100 100-148 100-17 0-32-6-45-20a74 74 0 0 1-19-53c0-51 23-106 69-164s92-87 138-87c23 0 39 12 46 36 23 0 34 9 34 26 0 8-2 23-7 44-7 40-11 72-11 95 0 25 1 43 5 53l7 19c2 3 6 7 14 10 8 4 12 9 12 16 0 9-5 18-15 24-10 7-21 10-31 10-37 0-53-36-49-109zm-18-161c-19 0-45 21-76 64-31 44-47 81-47 111 0 16 3 23 10 23 23 0 51-20 84-60 34-41 50-76 50-107 0-9-2-17-6-23-5-6-10-8-15-8zm257 274c-32 0-56-9-73-26-17-18-25-42-25-73 0-49 20-101 60-158 39-57 78-85 116-85 19 0 34 9 47 27 13 19 20 38 20 57s-4 31-11 38-13 10-20 10c-18 0-29-13-32-39-3-19-7-29-15-29-15 0-34 22-59 65s-37 80-37 113c0 26 14 39 42 39 31 0 63-11 94-33 15-11 27-16 36-16 10 0 16 5 16 16 0 15-17 34-52 58-34 24-69 36-107 36zm285-150c32-60 60-101 83-123 24-22 47-32 71-32 16 0 30 5 41 16 11 12 19 41 24 89a413 413 0 0 0 19 92c4 11 10 21 18 30 5 8 8 15 8 22s-3 13-10 19-14 9-23 9c-17 0-32-10-46-29-13-18-21-44-24-77-3-41-6-66-10-78-3-11-9-17-17-17-12 0-34 23-66 68a997 997 0 0 0-91 147c-5 6-10 9-18 9-12 0-21-3-28-9-8-6-11-14-11-25l7-49c20-104 36-214 49-331 3-29 9-48 18-59s17-16 24-16c10 0 19 4 27 12 7 8 11 19 11 33 0 22-3 47-8 75l-29 135c-9 37-15 67-19 89zm569 34c0 20-16 44-50 72s-72 42-115 42c-33 0-58-10-77-31-19-20-28-49-28-86 0-54 19-105 57-152 38-48 79-71 123-71a69 69 0 0 1 72 69c0 34-16 66-48 97-33 30-74 51-125 63-6 1-9 5-9 10 0 9 5 18 13 27 8 8 19 12 33 12 39 0 77-20 116-60 7-7 14-11 21-11 12 0 17 6 17 19zm-194-51c30-6 57-20 81-39 23-20 35-38 35-55 0-6-2-12-6-16-3-4-8-6-14-6-16 0-35 12-56 37-20 25-34 51-40 79zm491 109c-9-18-16-50-20-98-4-49-14-74-28-74s-39 26-73 77a588 588 0 0 0-73 133c-4 4-9 7-14 7-29 0-44-14-44-40 0-10 3-30 9-63 7-41 11-93 11-153 0-9 4-19 12-29s16-16 25-16c12 0 20 3 26 9 6 5 9 20 9 45 0 18-5 54-16 106 42-98 88-147 140-147 45 0 71 35 79 106 8 72 17 108 27 108l15-3 17-4c9 0 14 6 14 17 0 10-7 20-20 31a71 71 0 0 1-48 17c-22 0-38-10-48-29zm671-243-110 97 122 92 28 20 14 9c11 6 32 11 64 13a47 47 0 0 1-8 49c-7 9-19 13-34 13-20 0-46-12-79-36l-112-82c-26-19-45-31-57-37-8 3-16 36-21 98-2 25-6 43-12 55-6 11-16 17-29 17-11 0-20-3-26-10s-9-15-9-26l3-20c5-19 13-86 24-202 10-97 19-153 26-168 7-14 17-21 32-21 24 0 36 13 36 41-12 49-21 107-26 172 27-21 47-38 59-51l18-17 42-41c15-15 26-29 33-41 10-18 18-30 24-38 6-7 13-10 20-10 8 0 17 4 27 12s15 17 15 27c0 8-5 19-15 34-11 15-27 32-49 51zm251 137-5 52a541 541 0 0 0 2 101c-2 6-7 12-14 17-8 5-16 7-25 7-26 0-40-17-40-50 0-15 5-51 13-107 6-41 9-71 9-90l-4-4c-13-9-20-17-20-25 0-10 7-21 22-33 7-5 12-12 14-19l7-35c10-62 26-106 48-132s50-39 84-39c20 0 36 6 50 19s21 29 21 48c0 17-4 35-12 53s-18 27-31 27c-6 0-10-2-14-5-4-4-6-8-6-14l2-25c0-30-7-46-19-46-16 0-31 20-44 59-14 40-21 73-21 101 0 3 2 4 6 4h85c16-1 25 6 25 19s-10 22-30 28c-21 6-42 9-64 9l-29 4-10 76zm347 66c44 0 66 13 66 39 0 16-6 30-19 42l-19-9c-16-8-37-12-64-12-15 0-41 3-77 9s-60 15-74 27a54 54 0 0 1-66 6c-8-6-12-13-12-21l37-40c126-127 190-195 194-203l-30 2c-34 5-59 7-76 7-48 0-72-12-72-36 0-20 12-31 36-31l7 2c14 5 30 8 47 8a719 719 0 0 0 136-13c11 0 21 3 28 8s11 12 11 21c0 6-7 19-22 37h1a1924 1924 0 0 1-166 179l4-1 9-2 12-3 11-2 14-3c36-7 63-11 82-11h2zm708-61a605 605 0 0 0-21 168c0 8-2 15-5 21-4 5-8 9-13 12s-11 5-18 5c-10 0-20-4-29-11-8-7-13-16-13-26l8-42 12-58c-65 48-123 72-174 72-35 0-62-10-83-30-20-20-30-47-30-82 0-56 16-109 49-160 36-53 78-94 126-125 48-30 97-46 145-46 25 0 44 5 59 14 14 9 22 21 22 35 0 12-5 25-15 39-10 15-20 22-30 22-7 0-11-2-15-4-3-3-6-8-9-16-4-8-8-15-13-18-4-4-11-6-21-6-29 0-63 15-100 44-38 29-69 63-92 103-24 39-36 77-36 113 0 38 17 57 49 57 17 0 37-5 61-13 23-9 48-23 74-41 27-19 43-36 48-51s9-32 12-50c2-11 6-19 12-22 7-4 15-5 26-5 26 0 38 8 38 25 0 7-3 18-9 33-6 12-10 26-15 43zm305 37c-19 34-41 60-65 80s-49 30-74 30c-15 0-30-8-45-23-16-16-23-40-23-73 0-23 5-57 17-104 10-38 15-67 15-87 8-16 20-24 36-24 12 0 21 3 27 11 7 7 10 15 10 22 0 14-5 33-14 59a559 559 0 0 0-28 117c0 26 5 38 16 38 17 0 39-16 68-48s47-65 56-99c9-33 17-55 23-65 7-11 17-16 29-16 20 0 30 12 30 34a375 375 0 0 0-22 135c0 51 9 81 26 91 5 3 8 7 8 12 0 7-5 14-15 20s-19 9-28 9c-15 0-27-11-35-32-8-22-12-51-12-87zm280-130c-2 0-7 22-16 65-10 43-14 69-14 78 0 16 1 27 5 34 3 6 9 9 16 9 11 0 22-2 32-6 10-3 23-12 39-25 10-8 19-13 26-13 5 0 10 2 13 5s5 7 5 11c0 17-13 37-41 58-27 22-57 33-87 33-26 0-45-8-59-23a97 97 0 0 1-20-65c0-26 10-78 30-156l-26 2h-6c-9 0-18-3-28-9-9-6-13-15-13-28 0-16 9-24 27-24l62-3c9-23 17-54 26-92 6-23 18-35 37-35a32 32 0 0 1 34 31c0 3-8 33-25 90l102-8c10 0 17 1 20 4s5 9 5 18c0 17-15 28-44 32l-100 17zm363 139c-51 67-100 100-148 100-17 0-32-6-45-20a74 74 0 0 1-19-53c0-51 23-106 69-164s92-87 138-87c24 0 39 12 46 36 23 0 34 9 34 26 0 8-2 23-7 44-7 40-11 72-11 95 0 25 2 43 5 53l7 19c2 3 7 7 14 10 8 4 12 9 12 16 0 9-5 18-15 24-10 7-20 10-31 10-37 0-53-36-49-109zm-18-161c-19 0-45 21-76 64-31 44-47 81-47 111 0 16 3 23 10 23 23 0 51-20 84-60 34-41 50-76 50-107 0-9-2-17-6-23-5-6-9-8-15-8zm257 274c-32 0-56-9-73-26-16-18-25-42-25-73 0-49 20-101 60-158 39-57 78-85 116-85 19 0 34 9 47 27 13 19 20 38 20 57s-4 31-11 38c-6 7-13 10-19 10-19 0-30-13-33-39-2-19-7-29-14-29-15 0-35 22-60 65s-37 80-37 113c0 26 14 39 42 39 31 0 63-11 94-33 15-11 27-16 36-16 10 0 16 5 16 16 0 15-17 34-51 58-35 24-70 36-108 36zm285-150c32-60 60-101 83-123 24-22 47-32 71-32 16 0 30 5 41 16 11 12 19 41 24 89a413 413 0 0 0 19 92c4 11 10 21 18 30 5 8 8 15 8 22s-3 13-10 19c-6 6-14 9-23 9-17 0-32-10-46-29-13-18-21-44-24-77-3-41-6-66-10-78-3-11-9-17-17-17-12 0-33 23-66 68a997 997 0 0 0-91 147c-4 6-10 9-17 9-12 0-22-3-29-9-8-6-11-14-11-25a4199 4199 0 0 0 56-381c3-28 9-47 18-58s17-16 24-16c10 0 19 4 27 12 7 8 11 19 11 33 0 22-2 47-8 75l-29 135c-9 37-15 67-19 89zm428-102c-1 0-7 22-16 65s-14 69-14 78c0 16 2 27 5 34 4 6 9 9 17 9 11 0 21-2 31-6 10-3 23-12 39-25 10-8 19-13 26-13 6 0 10 2 13 5 4 3 6 7 6 11 0 17-14 37-42 58-27 22-56 33-87 33-25 0-45-8-58-23-14-15-20-37-20-65 0-26 9-78 29-156l-26 2h-6c-9 0-18-3-27-9-10-6-14-15-14-28 0-16 9-24 28-24l62-3c8-23 16-54 26-92 5-23 17-35 36-35a32 32 0 0 1 34 31l-24 90 101-8c10 0 17 1 20 4 4 3 5 9 5 18 0 17-14 28-44 32l-100 17zm424 136c0 20-17 44-51 72s-72 42-115 42c-32 0-58-10-77-31-18-20-28-49-28-86 0-54 19-105 58-152 38-48 79-71 122-71a69 69 0 0 1 72 69c0 34-16 66-48 97-32 30-74 51-124 63-6 1-9 5-9 10 0 9 4 18 12 27 9 8 20 12 33 12 39 0 78-20 116-60 7-7 15-11 21-11 12 0 18 6 18 19zm-195-51c31-6 58-20 81-39 23-20 35-38 35-55 0-6-2-12-5-16-4-4-9-6-14-6-17 0-36 12-56 37-21 25-34 51-41 79zm492 109c-9-18-16-50-21-98-4-49-13-74-28-74-14 0-38 26-72 77a554 554 0 0 0-73 133c-5 4-10 7-14 7-30 0-44-14-44-40 0-10 2-30 8-63 8-41 12-93 12-153 0-9 4-19 12-29 7-10 16-16 25-16 11 0 20 3 26 9 6 5 9 20 9 45 0 18-6 54-17 106 42-98 89-147 140-147 45 0 72 35 79 106 8 72 17 108 27 108l16-3 16-4c9 0 14 6 14 17 0 10-7 20-19 31a71 71 0 0 1-48 17c-23 0-39-10-49-29h1zm182 34c-11 0-20-2-25-7-6-4-9-16-9-35l2-25c1-6 6-10 14-14 8-3 21-5 36-5 12 0 21 3 27 9 7 5 10 11 10 18 0 11-2 19-5 25-4 6-11 13-23 21-11 9-20 13-27 13z" class="fill-neutral" transform="scale(1.05373)"/></svg>
