<svg xmlns="http://www.w3.org/2000/svg" style="width: 30px; height: 30px;" class="shrink-0 fill-primary-500" viewBox="0 0 90 99"><path class="fill-primary-500" d="M11 99A79 79 0 0 1 1 73a77 77 0 0 1 0-26 78 78 0 0 1 8-25A79 79 0 0 1 27 0l9 6 2 4a6 6 0 0 1-1 4 51 51 0 0 0-8 13 60 60 0 0 0-4 17 68 68 0 0 0 1 18 54 54 0 0 0 7 19q2 3 1 6a7 7 0 0 1-4 4Zm52 0a79 79 0 0 1-10-26 77 77 0 0 1 0-26 78 78 0 0 1 8-25A79 79 0 0 1 78 0l10 6 2 4a6 6 0 0 1-2 4 51 51 0 0 0-7 13 60 60 0 0 0-4 17 68 68 0 0 0 1 18 54 54 0 0 0 7 19q2 3 1 6a7 7 0 0 1-4 4Z"/></svg>