<svg xmlns="http://www.w3.org/2000/svg" viewBox="0 0 83.4 54.9"><path d="M79.1 41.9H81a2.5 2.5 0 1 0 0-5h-2.2a15.6 15.6 0 0 1 .4 3.4 15.8 15.8 0 0 1 0 1.6"/><path d="M33.6 44.7a.5.5 0 0 0 .5.5h7.7a.5.5 0 0 0 .5-.6l-1.6-16.3a.5.5 0 0 0-.5-.5h-4.5a.5.5 0 0 0-.5.5l-1.2 12a.5.5 0 0 0 0 .3.5.5 0 0 0 0 .1l-.4 3.9a.5.5 0 0 0 0 .1m2.6-15.8h3.5l.3 2.9h-4Zm-.4 4H40l.3 3h-5Zm-.4 4h5.1l.3 3.2h-5.7Zm-.4 4.2h6l.2 3h-6.5Z"/><path d="M48.3 40.6a16 16 0 0 1 16-15.9 1.3 1.3 0 0 0-1.5-1.3A17.3 17.3 0 0 0 47 39.2a1.3 1.3 0 0 0 1.3 1.5"/><path d="M16.4 41.2a2.7 2.7 0 1 0-2.7-2.7 2.7 2.7 0 0 0 2.7 2.7"/><path d="M1.2 39.5h.2v1.2a1 1 0 0 0-.7 1V43c0 .6.6 1 1.5 1.1h.2l.5 1.1a1 1 0 0 0-.5 1.1l.4 1.4c.2.5 1 .8 1.8.5h.2l.9.8a1 1 0 0 0-.2 1.2l.8 1.2c.4.5 1.2.5 2 0v-.1l1.1.6a1 1 0 0 0 .3 1.1l1.1.9c.5.3 1.3 0 1.8-.6l.1-.2 1.2.3a1 1 0 0 0 .6 1l1.3.4c.6.2 1.3-.3 1.6-1v-.3l1.2-.1a1 1 0 0 0 1 .8h1.3c.6 0 1.1-.7 1.1-1.5v-.2l1.1-.5a1 1 0 0 0 1.1.5l1.4-.4c.5-.2.8-1 .5-1.8V50l.9-.9a1 1 0 0 0 1.1.2l1.2-.8c.5-.4.5-1.2 0-2l-.1-.1.6-1a1 1 0 0 0 1.1-.3l.9-1.1c.3-.5 0-1.3-.6-1.8l-.2-.1.3-1.2a1 1 0 0 0 1-.6l.5-1.3c.2-.6-.4-1.3-1.2-1.6h-.2v-1.2a1 1 0 0 0 .7-1V34c0-.6-.6-1.1-1.5-1.1h-.2l-.5-1.1a1 1 0 0 0 .5-1.1l-.4-1.4c-.2-.5-1-.8-1.8-.5H28l-.8-.9a1 1 0 0 0 0-1.1l-.7-1.2c-.4-.5-1.2-.5-2 0v.1l-1.1-.6A1 1 0 0 0 23 24l-1-1c-.5-.3-1.3 0-1.8.6l-.1.2-1.2-.3a1 1 0 0 0-.6-1L17 22c-.6-.1-1.3.4-1.6 1.2v.2h-1.2a1 1 0 0 0-1-.7H12c-.6 0-1 .7-1.1 1.5v.2l-1.1.5a1 1 0 0 0-1.1-.5l-1.4.4c-.5.2-.8 1-.5 1.8v.2l-.8.9a1 1 0 0 0-1.2-.2l-1.2.8c-.5.4-.5 1.2 0 2h.1L3 31.6a1 1 0 0 0-1.1.3l-.9 1c-.3.5 0 1.3.6 1.8l.2.1-.3 1.2a1 1 0 0 0-1 .6L0 38c-.2.6.4 1.3 1.2 1.6m15.2-8.8a7.8 7.8 0 1 1-7.8 7.8 7.9 7.9 0 0 1 7.8-7.8"/><path d="M24.4 2.1A17.5 17.5 0 0 1 30 2l12.5 1.3a1.8 1.8 0 0 0-1.5-2L30 .1a19.2 19.2 0 0 0-6 .3l-5.5 1.1a1.8 1.8 0 0 0-1.4 2.1Z"/><path d="M63.7 37.8a2.4 2.4 0 1 0 2.4 2.5 2.4 2.4 0 0 0-2.4-2.5"/><path d="M74.2 31.6H74l-.7-.8a1 1 0 0 0 0-1l-.6-1c-.3-.5-1-.5-1.7 0h-.2l-.9-.5a1 1 0 0 0-.2-1l-1-.8c-.4-.3-1.2 0-1.6.6l-.1.1-1-.2a1 1 0 0 0-.6-1l-1.2-.3c-.5-.2-1.1.2-1.4 1v.1l-1.1.2a1 1 0 0 0-.8-.7h-1.3c-.5 0-1 .5-1 1.3v.2l-1 .4a1 1 0 0 0-.9-.4l-1.2.4c-.5.1-.7.8-.5 1.6v.1l-.7.8a1 1 0 0 0-1.1-.1l-1 .7c-.5.3-.5 1 0 1.7v.1l-.5 1a1 1 0 0 0-1 .2l-.8 1c-.3.4 0 1.1.6 1.6h.1l-.2 1.1a1 1 0 0 0-1 .6l-.3 1.2c-.2.5.3 1 1 1.3h.2v1.2a1 1 0 0 0-.6.7v1.3c0 .5.5 1 1.3 1h.2l.4 1a1 1 0 0 0-.4 1l.4 1.1c.1.5.8.8 1.6.5h.2l.7.8a1 1 0 0 0-.1 1l.7 1c.3.5 1 .5 1.7 0h.1l1 .5a1 1 0 0 0 .2 1l1 .8c.4.3 1.1 0 1.6-.5l.1-.2 1 .2a1 1 0 0 0 .6 1l1.2.4c.5.1 1-.3 1.3-1l.1-.2 1-.1a1 1 0 0 0 .9.7h1.2c.5 0 1-.6 1-1.4v-.1l1-.5a1 1 0 0 0 1 .4l1.2-.3c.5-.2.7-.9.5-1.6v-.2l.7-.7a1 1 0 0 0 1 0l1.1-.6c.4-.3.4-1.1 0-1.7l-.1-.2.5-1a1 1 0 0 0 1-.1l.8-1c.3-.5 0-1.2-.5-1.6l-.2-.1.3-1.1a1 1 0 0 0 .9-.5l.4-1.2c.2-.5-.3-1.1-1-1.4H77l-.1-1.1a1 1 0 0 0 .7-.8v-1.3c0-.5-.6-1-1.4-1h-.1l-.5-1a1 1 0 0 0 .5-.9l-.4-1.2c-.2-.5-.9-.7-1.6-.5M63.7 47.9a7.6 7.6 0 1 1 7.6-7.6 7.6 7.6 0 0 1-7.6 7.6"/><path d="M30 2.9a16.1 16.1 0 0 0-5.4.2l-4.6 1a23.4 23.4 0 0 0-2.7 11v1.2l.3-.1C24 14 32 22.2 33.5 26.8v.5h9.2l.4-10.5 1.4-1.6-3.4-11ZM19.9 14.6a8.5 8.5 0 0 0-1.3 0 22.3 22.3 0 0 1 2.3-9.4l2.8-.6a26.5 26.5 0 0 0-2.3 10 9.4 9.4 0 0 0-1.5 0M39.7 26h-5.2c-1.3-4-6.3-9.4-11.7-11a25 25 0 0 1 2.7-10.9 14.7 14.7 0 0 1 4.4 0l6.1.7 3.7 12.6Zm2.4-9.8-.4 9.8h-.5v-8.8L37.7 5l2.5.3 3 9.7Z"/><path d="M43.4 21.4H61l4.5-3.2a48.3 48.3 0 0 0-15.2-2.6V8.2l.6-.6V3.9l-3 3.3v8.4h-3.2L43.5 17Z"/><path d="M47.5 35a17.7 17.7 0 0 1 3.8-6.3l-8.1-1.1 1.6 7.4Z"/><path d="m43.3 21.9-.1 5.3 8.3 1.3.3-.3a17.7 17.7 0 0 1 11-5.1 1.7 1.7 0 0 1 1.8 1.6v.3a15.1 15.1 0 0 1 8.4 3.1l2-5.5a48.5 48.5 0 0 0-9-4.2l-4.9 3.5Z"/><path d="m35.7 37.3-.2 2.4h5l-.3-2.4Z"/><path d="M35.3 41.5v.1h5.3v-.1Z"/><path d="m36.1 33.2-.2 2.4H40l-.3-2.4Z"/><path d="M47.4 35.5h-2.9l-1.8-8h-2.1a.9.9 0 0 1 .5.8l1.3 13.3h1.9l2.3-1 .3-.5a1.7 1.7 0 0 1-.2-.9 17.5 17.5 0 0 1 .7-3.7"/><path d="m36.5 29.2-.2 2.2h3.3l-.2-2.2Z"/><path d="M33.1 34.6a17.2 17.2 0 0 1 .5 3.9 17.4 17.4 0 0 1-.3 3.1h.2l.1-.8a.8.8 0 0 1 0-.2.8.8 0 0 1 0-.3l1.2-12a.9.9 0 0 1 .6-.7H33c-1.3-4.7-9.5-13-15.9-10.7S5.7 22.7 5.6 24.7A17.8 17.8 0 0 1 33 34.6"/></svg>