<svg xmlns="http://www.w3.org/2000/svg" viewBox="0 0 84.5 37"><path d="M56 21.6a7.7 7.7 0 0 0-7.7 6.7 7.6 7.6 0 0 0 0 1 7.7 7.7 0 1 0 15.4 0 7.6 7.6 0 0 0-.1-1 7.7 7.7 0 0 0-7.6-6.7m0 12a4.2 4.2 0 1 1 4.1-4.3 4.2 4.2 0 0 1-4.1 4.2"/><path d="M56 27.1a2.2 2.2 0 1 0 2.2 2.2 2.2 2.2 0 0 0-2.2-2.2"/><path d="M62.8 21.6A10.3 10.3 0 0 0 45.7 28v.3h1.5a8.8 8.8 0 0 1 17.5 0h1.6V28a10.3 10.3 0 0 0-3.5-6.4"/><path d="M84.1 25.6h-.6V13.8h-55v12.5L2 27v-.4a.4.4 0 0 1 .3-.4l2.5-.6a.1.1 0 0 0 0-.2.5.5 0 0 0-.5-.2l-2.6.3a.7.7 0 0 0-.6.6v.9H.7a.7.7 0 0 0-.7.7v.2a.4.4 0 0 0 .4.3H45V28a11 11 0 0 1 21.7 0v.4h15.6a1 1 0 0 0 .9.9h.8a.4.4 0 0 0 .4-.4V26a.4.4 0 0 0-.4-.3"/><path d="M83.5 0h-55a6.1 6.1 0 0 0 0 .7v11.9h55Z"/></svg>